<svg xmlns:xlink="http://www.w3.org/1999/xlink" width="30.5" xmlns="http://www.w3.org/2000/svg" height="33" id="screenshot-260a5be5-4e80-8083-8003-f87fdc000cfc" viewBox="0 0 30.5 33" style="-webkit-print-color-adjust: exact;" fill="none" version="1.1"><g id="shape-260a5be5-4e80-8083-8003-f87fdc000cfc" xml:space="preserve" width="85.26226" version="1.1" height="87.035004" rx="0" ry="0" style="fill: rgb(0, 0, 0);"><g id="shape-260a5be5-4e80-8083-8003-f87fdc0129ac"><defs id="defs1" rx="0" ry="0" style="fill: rgb(0, 0, 0);"/></g><g id="shape-260a5be5-4e80-8083-8003-f87fdc017c6f" rx="0" ry="0" style="fill: rgb(0, 0, 0);"><g id="shape-260a5be5-4e80-8083-8003-f87fdc04934d"><g class="fills" id="fills-260a5be5-4e80-8083-8003-f87fdc04934d"><path rx="0" ry="0" d="M29.996,19.150L28.569,9.249C28.569,9.248,28.569,9.247,28.568,9.246C28.567,9.242,28.565,9.237,28.565,9.233C28.560,9.209,28.553,9.186,28.544,9.164C28.541,9.156,28.537,9.149,28.533,9.142C28.524,9.121,28.512,9.102,28.498,9.084C28.495,9.081,28.494,9.076,28.491,9.072L23.505,3.047C23.461,2.994,23.402,2.955,23.336,2.935L13.702,0.014C13.676,0.006,13.649,0.002,13.623,0.000C13.618,-0.000,13.613,0.000,13.607,0.000C13.582,-0.000,13.557,0.002,13.532,0.007C13.525,0.009,13.519,0.010,13.512,0.012C13.484,0.019,13.456,0.030,13.430,0.044C13.429,0.045,13.427,0.046,13.426,0.046L5.812,4.487C5.776,4.508,5.743,4.536,5.716,4.569L0.079,11.498C0.078,11.500,0.077,11.503,0.075,11.505C0.057,11.528,0.042,11.553,0.030,11.581C0.028,11.585,0.026,11.591,0.024,11.596C0.016,11.619,0.009,11.643,0.005,11.667C0.004,11.675,0.003,11.682,0.002,11.690C-0.001,11.719,-0.001,11.748,0.003,11.778C0.004,11.779,0.003,11.779,0.004,11.780L1.570,21.865C1.580,21.930,1.608,21.991,1.650,22.041L6.706,28.027L6.707,28.027L6.709,28.030C6.712,28.033,6.715,28.035,6.718,28.038C6.731,28.052,6.745,28.067,6.761,28.079C6.769,28.085,6.777,28.090,6.785,28.095C6.797,28.103,6.809,28.111,6.822,28.117C6.832,28.122,6.842,28.126,6.852,28.130C6.860,28.132,6.868,28.137,6.876,28.139L16.312,30.985C16.345,30.995,16.379,31.000,16.413,31.000C16.473,31.000,16.534,30.984,16.588,30.952L24.260,26.476C24.269,26.471,24.275,26.465,24.283,26.459C24.292,26.453,24.302,26.447,24.310,26.440C24.322,26.430,24.333,26.418,24.343,26.407C24.348,26.401,24.353,26.398,24.358,26.392L29.922,19.425C29.983,19.348,30.011,19.249,29.996,19.150ZZM6.813,27.058L2.373,21.802L8.112,21.073L8.304,21.550ZM21.341,10.292L18.956,20.371L9.026,21.144L8.858,21.040L8.569,20.320L10.902,10.460L20.420,9.719ZM10.834,10.109L9.186,8.252L12.840,5.006L19.910,9.402ZM12.481,4.378L8.716,7.722L6.314,5.015L13.112,1.051ZM8.452,7.957L4.611,11.368L1.095,11.368L6.062,5.263ZM8.922,8.486L10.568,10.342L8.342,19.753L5.163,11.825ZM8.948,21.864L9.449,21.825L17.001,26.521L16.296,30.238L7.406,27.557ZM17.178,26.213L10.046,21.778L19.092,21.074L20.799,22.997ZM19.623,20.607L21.841,11.231L25.047,19.224L21.327,22.528ZM21.821,9.755L21.565,9.596L21.510,9.459L23.084,3.647L27.538,9.029ZM21.188,9.302L21.188,9.302ZL13.194,4.391L13.873,0.808L22.759,3.503ZM0.762,12.080L4.507,12.080L7.976,20.732L2.219,21.463ZM17.357,26.527L21.034,23.261L23.533,26.079L16.684,30.075ZM24.071,25.620L21.562,22.792L25.322,19.452L28.996,19.452ZM25.374,19.097L21.982,10.636L22.027,10.446L27.923,9.697L29.278,19.097Z"/></g></g></g></g></svg>