<svg xmlns:xlink="http://www.w3.org/1999/xlink" width="24" xmlns="http://www.w3.org/2000/svg" height="23" id="screenshot-260a5be5-4e80-8083-8003-f87a4b06f32f" viewBox="863 1679 24 23" style="-webkit-print-color-adjust: exact;" fill="none" version="1.1"><g id="shape-260a5be5-4e80-8083-8003-f87a4b06f32f"><g class="fills" id="fills-260a5be5-4e80-8083-8003-f87a4b06f32f"><path rx="0" ry="0" d="M885.474,1702.000L877.492,1694.022L879.017,1692.497L887.000,1700.474ZM865.495,1702.000L863.968,1700.474L873.972,1690.477L869.702,1686.238L868.917,1687.023L867.554,1685.633L867.554,1688.220L866.769,1689.004L863.000,1685.238L863.785,1684.452L866.373,1684.452L864.991,1683.098L868.104,1679.987C868.436,1679.656,868.799,1679.410,869.194,1679.249C869.588,1679.089,870.008,1679.009,870.455,1679.009C870.901,1679.009,871.321,1679.089,871.715,1679.249C872.110,1679.410,872.473,1679.656,872.804,1679.987L870.438,1682.352L872.014,1683.927L871.229,1684.712L875.499,1688.951L879.175,1685.277C878.950,1684.958,878.794,1684.631,878.707,1684.298C878.619,1683.965,878.576,1683.599,878.576,1683.200C878.576,1682.027,878.983,1681.033,879.797,1680.220C880.610,1679.407,881.604,1679.000,882.779,1679.000C883.028,1679.000,883.267,1679.018,883.497,1679.053C883.729,1679.088,883.958,1679.159,884.183,1679.266L881.204,1682.242L883.738,1684.774L886.715,1681.796C886.827,1682.021,886.900,1682.249,886.932,1682.480C886.965,1682.712,886.981,1682.952,886.981,1683.200C886.981,1684.374,886.574,1685.367,885.759,1686.180C884.946,1686.995,883.953,1687.402,882.779,1687.402C882.380,1687.402,882.014,1687.359,881.680,1687.273C881.347,1687.188,881.021,1687.031,880.702,1686.801Z" style="fill: rgb(0, 0, 0);"/></g></g></svg>