<svg xmlns:xlink="http://www.w3.org/1999/xlink" width="20" xmlns="http://www.w3.org/2000/svg" height="20" id="screenshot-58ff4ef9-d4a6-80d1-8004-13d11a3a6ddf" viewBox="-1 -1 20 20" style="-webkit-print-color-adjust: exact;" fill="none" version="1.1"><g id="shape-58ff4ef9-d4a6-80d1-8004-13d11a3a6ddf" rx="0" ry="0"><g id="shape-260a5be5-4e80-8083-8003-f87bde73bc26"><g class="fills" id="fills-260a5be5-4e80-8083-8003-f87bde73bc26"><path fill="none" stroke-linecap="round" stroke-linejoin="round" rx="0" ry="0" d="M2.000,9.000C2.000,9.000,4.545,4.000,9.000,4.000C13.454,4.000,16.000,9.000,16.000,9.000C16.000,9.000,13.454,14.000,9.000,14.000C4.545,14.000,2.000,9.000,2.000,9.000Z" style="fill: none;"/></g><g id="strokes-260a5be5-4e80-8083-8003-f87bde73bc26" class="strokes"><g class="stroke-shape"><path stroke-linecap="round" stroke-linejoin="round" rx="0" ry="0" d="M2.000,9.000C2.000,9.000,4.545,4.000,9.000,4.000C13.454,4.000,16.000,9.000,16.000,9.000C16.000,9.000,13.454,14.000,9.000,14.000C4.545,14.000,2.000,9.000,2.000,9.000Z" style="fill: none; stroke-width: 2; stroke: rgb(0, 0, 0); stroke-opacity: 1;"/></g></g></g><g id="shape-260a5be5-4e80-8083-8003-f87bde7458d5"><g class="fills" id="fills-260a5be5-4e80-8083-8003-f87bde7458d5"><path fill="none" stroke-linecap="round" stroke-linejoin="round" rx="0" ry="0" d="M9.000,10.000C9.552,10.000,10.000,9.552,10.000,9.000C10.000,8.448,9.552,8.000,9.000,8.000C8.448,8.000,8.000,8.448,8.000,9.000C8.000,9.552,8.448,10.000,9.000,10.000ZM18.000,14.000L18.000,16.000C18.000,17.105,17.105,18.000,16.000,18.000L2.000,18.000C0.895,18.000,0.000,17.105,0.000,16.000L0.000,14.000M18.000,4.000L18.000,2.000C18.000,0.895,17.105,0.000,16.000,0.000L2.000,0.000C0.895,0.000,0.000,0.895,0.000,2.000L0.000,4.000" style="fill: none;"/></g><g id="strokes-260a5be5-4e80-8083-8003-f87bde7458d5" class="strokes"><g class="stroke-shape"><path stroke-linecap="round" stroke-linejoin="round" rx="0" ry="0" d="M9.000,10.000C9.552,10.000,10.000,9.552,10.000,9.000C10.000,8.448,9.552,8.000,9.000,8.000C8.448,8.000,8.000,8.448,8.000,9.000C8.000,9.552,8.448,10.000,9.000,10.000ZM18.000,14.000L18.000,16.000C18.000,17.105,17.105,18.000,16.000,18.000L2.000,18.000C0.895,18.000,0.000,17.105,0.000,16.000L0.000,14.000M18.000,4.000L18.000,2.000C18.000,0.895,17.105,0.000,16.000,0.000L2.000,0.000C0.895,0.000,0.000,0.895,0.000,2.000L0.000,4.000" style="fill: none; stroke-width: 2; stroke: rgb(0, 0, 0); stroke-opacity: 1;"/></g></g></g></g></svg>