<svg xmlns:xlink="http://www.w3.org/1999/xlink" width="20" xmlns="http://www.w3.org/2000/svg" height="20" id="screenshot-260a5be5-4e80-8083-8003-f8794c44ecd7" viewBox="639 1680 20 20" style="-webkit-print-color-adjust: exact;" fill="none" version="1.1"><g id="shape-260a5be5-4e80-8083-8003-f8794c44ecd7"><g class="fills" id="fills-260a5be5-4e80-8083-8003-f8794c44ecd7"><path rx="0" ry="0" d="M639.000,1680.000L649.000,1680.000L649.000,1688.000L659.000,1688.000L659.000,1700.000L639.000,1700.000ZM649.000,1690.000L649.000,1698.000L653.000,1698.000L653.000,1693.000L657.000,1693.000L657.000,1690.000ZM657.000,1695.000L655.000,1695.000L655.000,1698.000L657.000,1698.000ZM647.000,1698.000L647.000,1682.000L641.000,1682.000L641.000,1698.000ZM645.004,1684.000L645.004,1686.004L643.000,1686.004L643.000,1684.004L643.004,1684.004L643.004,1684.000ZM645.004,1689.000L645.004,1691.004L643.000,1691.004L643.000,1689.004L643.004,1689.004L643.004,1689.000ZM645.004,1694.000L645.004,1696.004L643.000,1696.004L643.000,1694.004L643.004,1694.004L643.004,1694.000Z" style="fill: rgb(0, 0, 0);"/></g></g></svg>