<?xml version="1.0" encoding="UTF-8" standalone="no"?>
<!-- Created with Inkscape (http://www.inkscape.org/) -->

<svg
   width="8.6999998cm"
   height="4.8000002cm"
   viewBox="0 0 86.999998 48.000002"
   version="1.1"
   id="svg1"
   inkscape:version="1.3.2 (091e20ef0f, 2023-11-25)"
   sodipodi:docname="cv.svg"
   xmlns:inkscape="http://www.inkscape.org/namespaces/inkscape"
   xmlns:sodipodi="http://sodipodi.sourceforge.net/DTD/sodipodi-0.dtd"
   xmlns:xlink="http://www.w3.org/1999/xlink"
   xmlns="http://www.w3.org/2000/svg"
   xmlns:svg="http://www.w3.org/2000/svg">
  <sodipodi:namedview
     id="namedview1"
     pagecolor="#ffffff"
     bordercolor="#000000"
     borderopacity="0.25"
     inkscape:showpageshadow="2"
     inkscape:pageopacity="0.0"
     inkscape:pagecheckerboard="0"
     inkscape:deskcolor="#d1d1d1"
     inkscape:document-units="mm"
     inkscape:zoom="4"
     inkscape:cx="445.625"
     inkscape:cy="128.875"
     inkscape:window-width="1920"
     inkscape:window-height="1043"
     inkscape:window-x="1280"
     inkscape:window-y="0"
     inkscape:window-maximized="1"
     inkscape:current-layer="g15"
     showgrid="false" />
  <defs
     id="defs1">
    <pattern
       inkscape:collect="always"
       xlink:href="#Wave"
       preserveAspectRatio="xMidYMid"
       id="pattern32"
       patternTransform="scale(1)" />
    <pattern
       patternUnits="userSpaceOnUse"
       width="24"
       height="10"
       preserveAspectRatio="xMidYMid"
       id="Wave"
       style="fill:#000000"
       x="0"
       y="0"
       inkscape:collect="always"
       inkscape:isstock="true"
       inkscape:label="Wave">
      <g
         id="wave_g"
         style="display:inline">
        <path
           d="M 12,-2 C 9.1666695,-2 7.1679672,-0.56445187 5.4179687,0.68554687 3.6679703,1.9355456 2.1666645,3 0,3 V 5 C 2.8333305,5 4.8320328,3.5644519 6.5820312,2.3144531 8.3320297,1.0644544 9.8333355,0 12,0 14.166665,0 15.667971,1.0644544 17.417969,2.3144531 19.167967,3.5644519 21.166669,5 24,5 V 3 C 21.833335,3 20.332029,1.9355456 18.582031,0.68554687 16.832033,-0.56445189 14.833331,-2 12,-2 Z"
           id="path3" />
        <path
           d="M 12,3 C 9.1666695,3 7.1679672,4.4355481 5.4179687,5.6855469 3.6679703,6.9355456 2.1666645,8 0,8 v 2 C 2.8333305,10 4.8320328,8.5644519 6.5820312,7.3144531 8.3320297,6.0644544 9.8333355,5 12,5 14.166665,5 15.667971,6.0644544 17.417969,7.3144531 19.167967,8.5644519 21.166669,10 24,10 V 8 C 21.833335,8 20.332029,6.9355456 18.582031,5.6855469 16.832033,4.4355481 14.833331,3 12,3 Z"
           id="path31" />
        <path
           d="M 12,8 C 9.1666695,8 7.1679672,9.4355481 5.4179687,10.685547 3.6679703,11.935546 2.1666645,13 0,13 v 2 C 2.8333305,15 4.8320328,13.564452 6.5820312,12.314453 8.3320297,11.064454 9.8333355,10 12,10 c 2.166665,0 3.667971,1.064454 5.417969,2.314453 C 19.167967,13.564452 21.166669,15 24,15 V 13 C 21.833335,13 20.332029,11.935546 18.582031,10.685547 16.832033,9.4355481 14.833331,8 12,8 Z"
           id="path32" />
      </g>
    </pattern>
    <clipPath
       clipPathUnits="userSpaceOnUse"
       id="clipPath55">
      <path
         id="path55"
         style="stroke-width:0.1;stroke-linecap:square;paint-order:markers fill stroke;stop-color:#000000"
         d="m 1736.6147,-745.57287 h 1589.4765 v 72.46715 H 1736.6147 Z" />
    </clipPath>
    <clipPath
       clipPathUnits="userSpaceOnUse"
       id="clipPath54">
      <path
         id="path54"
         style="stroke-width:0.0999999;stroke-linecap:square;paint-order:markers fill stroke;stop-color:#000000"
         d="m 1691.1994,-792.32001 h 1634.8919 v 92.82806 H 1691.1994 Z" />
    </clipPath>
    <clipPath
       clipPathUnits="userSpaceOnUse"
       id="clipPath15">
      <rect
         style="fill:none;stroke:#000000;stroke-linecap:butt;stroke-linejoin:bevel;paint-order:stroke markers fill;stop-color:#000000"
         id="rect15-7"
         width="45.034248"
         height="38.955639"
         x="262.48285"
         y="121.00073" />
    </clipPath>
  </defs>
  <g
     inkscape:label="Layer 1"
     inkscape:groupmode="layer"
     id="layer1">
    <g
       id="g3"
       transform="matrix(0.16057475,0,0,0.16057475,-1.8041278,-17.03356)"
       inkscape:label="frente"
       style="display:inline">
      <rect
         style="fill:#292929;fill-opacity:1;stroke:none;stroke-width:18.6829;stroke-linejoin:round;stroke-dasharray:none"
         id="rect2"
         width="541.80371"
         height="298.92621"
         x="11.235439"
         y="106.0787"
         inkscape:label="fundo" />
      <rect
         style="fill:#ffffff;fill-opacity:0.0655348;stroke-width:0.308527;stroke-linejoin:round;stroke-miterlimit:1"
         id="rect1"
         width="541.80371"
         height="80.446098"
         x="11.235439"
         y="215.91484"
         inkscape:label="faixa" />
      <g
         id="g2"
         transform="translate(12.50233,-2.213139)"
         style="display:inline;opacity:1"
         inkscape:label="logo_texto">
        <g
           id="g97"
           transform="matrix(0.70800941,0,0,0.70800941,33.326222,207.13157)"
           style="display:inline;stroke:#ffffff"
           inkscape:label="logomarca">
          <path
             d="m 136.55849,6.8700391 -13.4735,20.3104759 50.37,0.5221 11.10963,-19.7129768 z"
             id="path88"
             style="display:inline;fill:#cccccc;stroke:none;stroke-width:0.706205;stroke-miterlimit:1;stroke-dasharray:none"
             sodipodi:nodetypes="ccccc" />
          <path
             d="m 184.56462,7.9896382 0.13068,13.8646068 -8.28017,16.483048 -50.83,-0.6371 -2.31614,-10.512778 50.37,0.5221 z"
             id="path89"
             style="fill:#4d4d4d;stroke:none;stroke-width:0.706205;stroke-linejoin:round;stroke-miterlimit:1;stroke-dasharray:none"
             sodipodi:nodetypes="ccccccc" />
          <path
             d="m 71.219989,57.471506 0.851212,13.105446 -42.481212,0.1495 L 2.4499898,20.126461 0.22893976,0.01646664"
             id="path90"
             style="fill:#4d4d4d;stroke:none;stroke-width:0.706205;stroke-linejoin:round;stroke-dasharray:none"
             sodipodi:nodetypes="ccccc" />
          <path
             d="M 0.14998976,0.20151544 29.359989,57.471506 h 41.86 l -27.37,-54.7399906 z"
             fill="#e6e6e6"
             id="path91"
             style="fill:#cccccc;stroke:none;stroke-width:0.706205;stroke-linejoin:round;stroke-dasharray:none" />
          <path
             d="m 56.729989,4.3415154 25.99,54.7399906 H 156.31999 L 167.55465,40.198867 111.76012,39.882026 95.99099,5.8434154 Z"
             id="path92"
             style="fill:#cccccc;stroke:none;stroke-width:0.706205;stroke-linejoin:round;stroke-dasharray:none"
             sodipodi:nodetypes="ccccccc" />
          <path
             d="m 39.709989,75.871506 h 39.79 l 30.130001,55.429994 -41.860001,0.6486 z"
             id="path93"
             style="fill:#cccccc;stroke:none;stroke-width:0.706205;stroke-linejoin:round;stroke-dasharray:none" />
          <path
             d="M 152.43888,76.04401 119.74999,129.2315 91.62099,75.940506 Z"
             id="path94"
             style="fill:#cccccc;stroke:none;stroke-width:0.706205;stroke-linejoin:round;stroke-dasharray:none"
             sodipodi:nodetypes="cccc" />
          <path
             d="m 56.729989,4.3415154 2.392,11.7299996 25.295959,55.168642 76.134042,-0.608051 7.07594,-12.87341 -0.031,-17.263487 -11.16198,18.613897 H 82.834989 Z"
             id="path95"
             style="fill:#4d4d4d;stroke:none;stroke-width:0.706205;stroke-linejoin:round;stroke-dasharray:none"
             sodipodi:nodetypes="ccccccccc" />
          <path
             d="m 39.709989,75.871506 1.955,16.744 26.45,50.369994 43.240001,-0.71069 -1.8607,-11.17801 -41.860001,0.9545 z"
             id="path96"
             style="fill:#4d4d4d;stroke:none;stroke-width:0.706205;stroke-linejoin:round;stroke-dasharray:none" />
          <path
             d="M 152.43888,76.04401 151.88863,89.049103 121.35999,142.5255 92.58136,90.067388 91.62099,75.940506 l 28.29,53.129994 z"
             id="path97"
             style="display:inline;fill:#4d4d4d;stroke:none;stroke-width:0.706205;stroke-linejoin:round;stroke-dasharray:none"
             sodipodi:nodetypes="ccccccc" />
        </g>
        <text
           xml:space="preserve"
           style="font-style:normal;font-variant:normal;font-weight:500;font-stretch:normal;font-size:55.5249px;font-family:Lexend;-inkscape-font-specification:'Lexend, Medium';font-variant-ligatures:normal;font-variant-caps:normal;font-variant-numeric:normal;font-variant-east-asian:normal;fill:#4ade80;fill-opacity:1;stroke-width:3.70686;stroke-linejoin:round;stroke-miterlimit:1;stroke-dasharray:none"
           x="182.68275"
           y="262.44778"
           id="text97"
           inkscape:label="SCHILLING"><tspan
             sodipodi:role="line"
             id="tspan97"
             x="182.68275"
             y="262.44778"
             style="font-style:normal;font-variant:normal;font-weight:500;font-stretch:normal;font-size:55.5249px;font-family:Lexend;-inkscape-font-specification:'Lexend, Medium';font-variant-ligatures:normal;font-variant-caps:normal;font-variant-numeric:normal;font-variant-east-asian:normal;fill:#4ade80;fill-opacity:1;stroke-width:3.70686">SCHILLING</tspan></text>
        <text
           xml:space="preserve"
           style="font-style:normal;font-variant:normal;font-weight:300;font-stretch:normal;font-size:40px;font-family:Lexend;-inkscape-font-specification:'Lexend,  weight=250';font-variant-ligatures:normal;font-variant-caps:normal;font-variant-numeric:normal;font-variant-east-asian:normal;letter-spacing:33.858px;white-space:pre;inline-size:629.078;display:inline;fill:#de8787;stroke-width:0.3;stroke-linejoin:round;stroke-miterlimit:1"
           x="245.05806"
           y="124.83566"
           id="text98"
           transform="matrix(0.62342161,0,0,0.62342161,37.709383,210.80928)"
           inkscape:label="arquitetos"><tspan
             x="245.05806"
             y="124.83566"
             id="tspan1">arquitetos</tspan></text>
      </g>
    </g>
    <g
       id="g15"
       transform="matrix(0.16057475,0,0,0.16057475,86.624108,-17.03356)"
       inkscape:label="costas"
       style="display:inline">
      <path
         id="rect6"
         style="opacity:1;fill:#ff2a2a;fill-opacity:0.989203;stroke-width:18.6829;stroke-linejoin:round"
         d="m 55.58579,276.82638 v 51.33377 H 214.6912 v -0.0611 a 25.478556,25.667128 0 0 0 0.87213,0.0611 25.478556,25.667128 0 0 0 25.47862,-25.66849 25.478556,25.667128 0 0 0 -25.47862,-25.66528 25.478556,25.667128 0 0 0 -0.87213,0.0611 v -0.0611 z" />
      <rect
         style="display:inline;opacity:1;mix-blend-mode:multiply;fill:#ffffff;fill-opacity:1;stroke:none;stroke-width:18.6829;stroke-linejoin:round;stroke-dasharray:none"
         id="rect32"
         width="541.80371"
         height="298.92621"
         x="11.235439"
         y="106.0787"
         inkscape:label="fundo"
         transform="translate(-5.7086602e-6)" />
      <rect
         style="display:inline;opacity:0.131;mix-blend-mode:multiply;fill:url(#pattern32);fill-opacity:1;stroke:none;stroke-width:18.6829;stroke-linejoin:round;stroke-dasharray:none"
         id="rect3"
         width="541.80371"
         height="298.92621"
         x="11.235439"
         y="106.0787"
         inkscape:label="fundo" />
      <g
         id="g14"
         transform="translate(12.50234,42.334094)"
         style="display:inline;opacity:1"
         inkscape:label="logo_texto">
        <rect
           style="display:inline;fill:#000000;fill-opacity:0.65115;stroke-width:0.355589;stroke-linejoin:round;stroke-miterlimit:1"
           id="rect4"
           width="541.80371"
           height="106.86"
           x="11.23543"
           y="106.0787"
           inkscape:label="faixa"
           transform="translate(-12.502336,2.2131397)" />
        <g
           id="g33"
           style="display:inline;opacity:1"
           transform="translate(6.2691414e-6)">
          <text
             xml:space="preserve"
             style="font-style:normal;font-variant:normal;font-weight:500;font-stretch:normal;font-size:57.1212px;font-family:Lexend;-inkscape-font-specification:'Lexend, Medium';font-variant-ligatures:normal;font-variant-caps:normal;font-variant-numeric:normal;font-variant-east-asian:normal;fill:#4ade80;fill-opacity:1;stroke-width:3.70686;stroke-linejoin:round;stroke-miterlimit:1;stroke-dasharray:none"
             x="16.445257"
             y="166.2334"
             id="text13"
             inkscape:label="SCHILLING"><tspan
               sodipodi:role="line"
               id="tspan13"
               x="16.445257"
               y="166.2334"
               style="font-style:normal;font-variant:normal;font-weight:500;font-stretch:normal;font-size:57.1212px;font-family:Lexend;-inkscape-font-specification:'Lexend, Medium';font-variant-ligatures:normal;font-variant-caps:normal;font-variant-numeric:normal;font-variant-east-asian:normal;fill:#4ade80;fill-opacity:1;stroke-width:3.70686">VERA SCHILLING</tspan></text>
          <text
             xml:space="preserve"
             style="font-style:normal;font-variant:normal;font-weight:300;font-stretch:normal;font-size:40px;font-family:Lexend;-inkscape-font-specification:'Lexend,  weight=250';font-variant-ligatures:normal;font-variant-caps:normal;font-variant-numeric:normal;font-variant-east-asian:normal;letter-spacing:15.8582px;white-space:pre;inline-size:629.078;display:inline;fill:#de8787;stroke-width:0.3;stroke-linejoin:round;stroke-miterlimit:1"
             x="245.05806"
             y="124.83566"
             id="text14"
             transform="matrix(0.62342161,0,0,0.62342161,-136.2313,117.59422)"
             inkscape:label="arquitetos"><tspan
               x="245.05806"
               y="124.83566"
               id="tspan2">arquiteta</tspan></text>
          <text
             xml:space="preserve"
             style="font-style:normal;font-variant:normal;font-weight:bold;font-stretch:normal;font-size:35.2405px;font-family:Lexend;-inkscape-font-specification:'Lexend, Bold';font-variant-ligatures:normal;font-variant-caps:normal;font-variant-numeric:normal;font-variant-east-asian:normal;letter-spacing:0px;white-space:pre;inline-size:629.078;display:inline;fill:#de8787;stroke-width:0.3;stroke-linejoin:round;stroke-miterlimit:1"
             x="245.05806"
             y="124.83566"
             id="text32"
             transform="matrix(0.62342161,0,0,0.62342161,175.76741,117.59422)"
             inkscape:label="arquitetos"><tspan
               x="245.05806"
               y="124.83566"
               id="tspan7"><tspan
                 style="font-weight:normal;-inkscape-font-specification:Lexend"
                 id="tspan3">CAU/SP: 013144-0 </tspan></tspan></text>
        </g>
        <rect
           style="display:inline;fill:#000000;fill-opacity:0.857891;stroke-width:0.388864;stroke-linejoin:round;stroke-miterlimit:1"
           id="rect5"
           width="541.80371"
           height="127.79469"
           x="-1.2669064"
           y="214.0874"
           inkscape:label="faixa" />
      </g>
      <g
         id="g5"
         transform="translate(-107.17155,-181.77184)">
        <circle
           style="display:inline;opacity:1;fill:#333333;fill-opacity:0.857891;stroke-width:18.6829;stroke-linejoin:round"
           id="path5"
           cx="162.75734"
           cy="484.07562"
           r="25.667128" />
        <path
           fill="currentColor"
           d="m 150.58888,495.60971 q -1.13693,0 -1.89818,-0.76125 -0.7629,-0.7629 -0.7629,-1.89983 v -17.74602 q 0,-1.13693 0.7629,-1.89818 0.76125,-0.7629 1.89818,-0.7629 h 24.33692 q 1.13694,0 1.89819,0.7629 0.76289,0.76125 0.76289,1.89818 v 17.74602 q 0,1.13693 -0.76125,1.89818 -0.76289,0.7629 -1.89983,0.7629 z m 12.16846,-11.3446 -13.18181,-8.61761 v 17.30113 q 0,0.44324 0.28505,0.72829 0.28506,0.28506 0.7283,0.28506 h 24.33692 q 0.44324,0 0.7283,-0.28506 0.28506,-0.28505 0.28506,-0.72829 V 475.6475 Z m 0,-1.83722 12.67432,-8.23863 h -25.34863 z m -13.18181,-6.78039 v -1.45824 18.75937 q 0,0.44324 0.28505,0.72829 0.28506,0.28506 0.7283,0.28506 h -1.01335 z"
           id="path1"
           style="display:inline;opacity:1;fill:#f9f9f9;stroke-width:1.64773" />
      </g>
      <text
         xml:space="preserve"
         style="font-size:21.9696px;font-family:Lexend;-inkscape-font-specification:Lexend;letter-spacing:1.64773px;opacity:1;fill:#d35f5f;fill-opacity:0.989203;stroke-width:18.6829;stroke-linejoin:round"
         x="92.7062"
         y="306.06314"
         id="text6"><tspan
           sodipodi:role="line"
           id="tspan6"
           style="font-style:normal;font-variant:normal;font-weight:normal;font-stretch:normal;font-size:15.3788px;font-family:Lexend;-inkscape-font-specification:'Lexend, Normal';font-variant-ligatures:normal;font-variant-caps:normal;font-variant-numeric:normal;font-variant-east-asian:normal;letter-spacing:1.64773px;stroke-width:18.6829;fill:#d35f5f"
           x="92.7062"
           y="306.06314">contato@schilling.arq.br</tspan></text>
    </g>
  </g>
</svg>
