<?xml version="1.0" encoding="UTF-8" standalone="no"?>
<!-- Created with Inkscape (http://www.inkscape.org/) -->

<svg
   width="34.570408mm"
   height="26.78203mm"
   viewBox="0 0 34.570408 26.78203"
   version="1.1"
   id="svg1"
   sodipodi:docname="logoSchiling.svg"
   inkscape:version="1.3.2 (091e20ef0f, 2023-11-25)"
   xmlns:inkscape="http://www.inkscape.org/namespaces/inkscape"
   xmlns:sodipodi="http://sodipodi.sourceforge.net/DTD/sodipodi-0.dtd"
   xmlns="http://www.w3.org/2000/svg"
   xmlns:svg="http://www.w3.org/2000/svg">
  <sodipodi:namedview
     id="namedview1"
     pagecolor="#ffffff"
     bordercolor="#000000"
     borderopacity="0.25"
     inkscape:showpageshadow="2"
     inkscape:pageopacity="0.0"
     inkscape:pagecheckerboard="0"
     inkscape:deskcolor="#d1d1d1"
     inkscape:document-units="mm"
     inkscape:zoom="5.9651515"
     inkscape:cx="57.249175"
     inkscape:cy="37.635255"
     inkscape:window-width="1920"
     inkscape:window-height="1043"
     inkscape:window-x="1280"
     inkscape:window-y="0"
     inkscape:window-maximized="1"
     inkscape:current-layer="g97" />
  <defs
     id="defs1" />
  <g
     inkscape:label="Layer 1"
     inkscape:groupmode="layer"
     id="layer1"
     transform="translate(-92.339583,-149.75416)">
    <g
       id="g97"
       transform="matrix(0.18732749,0,0,0.18732749,92.311486,149.75108)"
       style="stroke:#000000;fill:none;stroke-width:2.11861591;stroke-dasharray:none"
       inkscape:label="lines">
      <path
         d="m 136.55849,6.8700391 -13.4735,20.3104759 50.37,0.5221 11.10963,-19.7129768 z"
         id="path88"
         style="display:inline;fill:none;stroke:#000000;stroke-width:2.11861591;stroke-miterlimit:1;stroke-dasharray:none;stroke-linecap:round"
         sodipodi:nodetypes="ccccc" />
      <path
         d="m 184.56462,7.9896382 0.13068,13.8646068 -8.28017,16.483048 -50.83,-0.6371 -2.31614,-10.512778 50.37,0.5221 z"
         id="path89"
         style="fill:none;stroke:#000000;stroke-width:2.11861591;stroke-linejoin:round;stroke-miterlimit:1;stroke-dasharray:none;stroke-linecap:round"
         sodipodi:nodetypes="ccccccc" />
      <path
         d="m 71.219989,57.471506 0.851212,13.105446 -42.481212,0.1495 L 2.4499898,20.126461 0.22893976,0.01646664"
         id="path90"
         style="fill:none;stroke:#000000;stroke-width:2.11862;stroke-linejoin:round;stroke-dasharray:none;stroke-linecap:round"
         sodipodi:nodetypes="ccccc" />
      <path
         d="M 0.14998976,0.20151544 29.359989,57.471506 h 41.86 l -27.37,-54.7399906 z"
         fill="#e6e6e6"
         id="path91"
         style="fill:none;stroke:#000000;stroke-width:2.11861591;stroke-linejoin:round;stroke-dasharray:none;stroke-linecap:round" />
      <path
         d="m 56.729989,4.3415154 25.99,54.7399906 H 156.31999 L 167.55465,40.198867 111.76012,39.882026 95.99099,5.8434154 Z"
         id="path92"
         style="fill:none;stroke:#000000;stroke-width:2.11861591;stroke-linejoin:round;stroke-dasharray:none;stroke-linecap:round"
         sodipodi:nodetypes="ccccccc" />
      <path
         d="m 39.709989,75.871506 h 39.79 l 30.130001,55.429994 -41.860001,0.6486 z"
         id="path93"
         style="fill:none;stroke:#000000;stroke-width:2.11861591;stroke-linejoin:round;stroke-dasharray:none;stroke-linecap:round" />
      <path
         d="M 152.43888,76.04401 119.74999,129.2315 91.62099,75.940506 Z"
         id="path94"
         style="fill:none;stroke:#000000;stroke-width:2.11861591;stroke-linejoin:round;stroke-dasharray:none;stroke-linecap:round"
         sodipodi:nodetypes="cccc" />
      <path
         d="m 56.729989,4.3415154 2.392,11.7299996 25.295959,55.168642 76.134042,-0.608051 7.07594,-12.87341 -0.031,-17.263487 -11.16198,18.613897 H 82.834989 Z"
         id="path95"
         style="fill:none;stroke:#000000;stroke-width:2.11861591;stroke-linejoin:round;stroke-dasharray:none;stroke-linecap:round"
         sodipodi:nodetypes="ccccccccc" />
      <path
         d="m 39.709989,75.871506 1.955,16.744 26.45,50.369994 43.240001,-0.71069 -1.8607,-11.17801 -41.860001,0.9545 z"
         id="path96"
         style="fill:none;stroke:#000000;stroke-width:2.11861591;stroke-linejoin:round;stroke-dasharray:none;stroke-linecap:round" />
      <path
         d="M 152.43888,76.04401 151.88863,89.049103 121.35999,142.5255 92.58136,90.067388 91.62099,75.940506 l 28.29,53.129994 z"
         id="path97"
         style="fill:none;stroke:#000000;stroke-width:2.11861591;stroke-linejoin:round;stroke-dasharray:none;stroke-linecap:round"
         sodipodi:nodetypes="ccccccc" />
    </g>
    <g
       id="g19"
       transform="matrix(0.18732749,0,0,0.18732749,92.311486,149.75108)"
       style="display:none;stroke:#ffffff"
       inkscape:label="fill">
      <path
         d="m 136.55849,6.8700391 -13.4735,20.3104759 50.37,0.5221 11.10963,-19.7129768 z"
         id="path10"
         style="display:inline;fill:#cccccc;stroke:none;stroke-width:0.706205;stroke-miterlimit:1;stroke-dasharray:none"
         sodipodi:nodetypes="ccccc" />
      <path
         d="m 184.56462,7.9896382 0.13068,13.8646068 -8.28017,16.483048 -50.83,-0.6371 -2.31614,-10.512778 50.37,0.5221 z"
         id="path11"
         style="fill:#4d4d4d;stroke:none;stroke-width:0.706205;stroke-linejoin:round;stroke-miterlimit:1;stroke-dasharray:none"
         sodipodi:nodetypes="ccccccc" />
      <path
         d="m 71.219989,57.471506 0.851212,13.105446 -42.481212,0.1495 L 2.4499898,20.126461 0.22893976,0.01646664"
         id="path12"
         style="fill:#4d4d4d;stroke:none;stroke-width:0.706205;stroke-linejoin:round;stroke-dasharray:none"
         sodipodi:nodetypes="ccccc" />
      <path
         d="M 0.14998976,0.20151544 29.359989,57.471506 h 41.86 l -27.37,-54.7399906 z"
         fill="#e6e6e6"
         id="path13"
         style="fill:#cccccc;stroke:none;stroke-width:0.706205;stroke-linejoin:round;stroke-dasharray:none" />
      <path
         d="m 56.729989,4.3415154 25.99,54.7399906 H 156.31999 L 167.55465,40.198867 111.76012,39.882026 95.99099,5.8434154 Z"
         id="path14"
         style="fill:#cccccc;stroke:none;stroke-width:0.706205;stroke-linejoin:round;stroke-dasharray:none"
         sodipodi:nodetypes="ccccccc" />
      <path
         d="m 39.709989,75.871506 h 39.79 l 30.130001,55.429994 -41.860001,0.6486 z"
         id="path15"
         style="fill:#cccccc;stroke:none;stroke-width:0.706205;stroke-linejoin:round;stroke-dasharray:none" />
      <path
         d="M 152.43888,76.04401 119.74999,129.2315 91.62099,75.940506 Z"
         id="path16"
         style="fill:#cccccc;stroke:none;stroke-width:0.706205;stroke-linejoin:round;stroke-dasharray:none"
         sodipodi:nodetypes="cccc" />
      <path
         d="m 56.729989,4.3415154 2.392,11.7299996 25.295959,55.168642 76.134042,-0.608051 7.07594,-12.87341 -0.031,-17.263487 -11.16198,18.613897 H 82.834989 Z"
         id="path17"
         style="fill:#4d4d4d;stroke:none;stroke-width:0.706205;stroke-linejoin:round;stroke-dasharray:none"
         sodipodi:nodetypes="ccccccccc" />
      <path
         d="m 39.709989,75.871506 1.955,16.744 26.45,50.369994 43.240001,-0.71069 -1.8607,-11.17801 -41.860001,0.9545 z"
         id="path18"
         style="fill:#4d4d4d;stroke:none;stroke-width:0.706205;stroke-linejoin:round;stroke-dasharray:none" />
      <path
         d="M 152.43888,76.04401 151.88863,89.049103 121.35999,142.5255 92.58136,90.067388 91.62099,75.940506 l 28.29,53.129994 z"
         id="path19"
         style="fill:#4d4d4d;stroke:none;stroke-width:0.706205;stroke-linejoin:round;stroke-dasharray:none"
         sodipodi:nodetypes="ccccccc" />
    </g>
  </g>
</svg>
