<?xml version="1.0" encoding="UTF-8" standalone="no"?>
<!-- Created with Inkscape (http://www.inkscape.org/) -->

<svg
   width="5.1593752mm"
   height="5.4811001mm"
   viewBox="0 0 5.1593752 5.4811"
   version="1.1"
   id="svg1"
   inkscape:version="1.4 (e7c3feb100, 2024-10-09)"
   sodipodi:docname="birth.svg"
   xmlns:inkscape="http://www.inkscape.org/namespaces/inkscape"
   xmlns:sodipodi="http://sodipodi.sourceforge.net/DTD/sodipodi-0.dtd"
   xmlns="http://www.w3.org/2000/svg"
   xmlns:svg="http://www.w3.org/2000/svg">
  <sodipodi:namedview
     id="namedview1"
     pagecolor="#ffffff"
     bordercolor="#000000"
     borderopacity="0.25"
     inkscape:showpageshadow="2"
     inkscape:pageopacity="0.0"
     inkscape:pagecheckerboard="0"
     inkscape:deskcolor="#d1d1d1"
     inkscape:document-units="mm"
     inkscape:zoom="2.096401"
     inkscape:cx="81.329861"
     inkscape:cy="-10.494176"
     inkscape:window-width="1920"
     inkscape:window-height="1043"
     inkscape:window-x="0"
     inkscape:window-y="0"
     inkscape:window-maximized="1"
     inkscape:current-layer="layer1" />
  <defs
     id="defs1" />
  <g
     inkscape:label="Layer 1"
     inkscape:groupmode="layer"
     id="layer1"
     transform="translate(-89.296599,-162.00697)">
    <path
       d="m 92.670036,162.00697 -0.210608,0.21034 a 0.29765625,0.29765625 0 1 0 0.420952,0 z m -0.79375,0 -0.210608,0.21034 a 0.29765625,0.29765625 0 1 0 0.420952,0 z m -0.79375,0 -0.210608,0.21034 a 0.29765625,0.29765625 0 1 0 0.420952,0 z m 0.198438,1.52479 c 0.131762,-0.006 0.264054,-0.009 0.396875,-0.0111 v -0.19976 a 0.1984375,0.1984375 0 0 1 0.396875,0 v 0.19976 c 0.13282,0.002 0.265112,0.006 0.396875,0.0111 v -0.21087 a 0.1984375,0.1984375 0 0 1 0.396875,0 v 0.23283 l 0.08123,0.006 c 0.410104,0.031 0.712523,0.37756 0.712523,0.77946 v 0.26935 a 16.452321,16.452321 0 0 0 -3.571875,0 v -0.26935 c 0,-0.4019 0.302418,-0.7485 0.712522,-0.77946 l 0.08123,-0.006 v -0.23283 a 0.1984375,0.1984375 0 0 1 0.396875,0 z m 0.595312,1.37663 c -0.65405,0 -1.296458,0.0487 -1.924579,0.14287 -0.384704,0.0574 -0.655108,0.39211 -0.655108,0.77153 v 0.1016 a 1.08585,1.08585 0 0 1 0.683947,0.0963 0.68923958,0.68923958 0 0 0 0.61648,0 1.08585,1.08585 0 0 1 0.97102,0 0.68923958,0.68923958 0 0 0 0.61648,0 1.08585,1.08585 0 0 1 0.97102,0 0.68923958,0.68923958 0 0 0 0.61648,0 1.08585,1.08585 0 0 1 0.683948,-0.0963 v -0.1016 c 0,-0.37942 -0.270405,-0.71438 -0.655109,-0.77179 a 13.001096,13.001096 0 0 0 -1.924579,-0.14261 z m 2.579688,1.42372 a 0.688975,0.688975 0 0 0 -0.506678,0.0437 1.08585,1.08585 0 0 1 -0.97102,0 0.68923958,0.68923958 0 0 0 -0.61648,0 1.08585,1.08585 0 0 1 -0.97102,0 0.68923958,0.68923958 0 0 0 -0.61648,0 1.08585,1.08585 0 0 1 -0.97102,0 0.688975,0.688975 0 0 0 -0.506677,-0.0437 v 0.65987 c 0,0.27384 0.22225,0.49609 0.496093,0.49609 h 4.167188 c 0.273844,0 0.496094,-0.22225 0.496094,-0.49609 z"
       id="path1"
       style="fill:#666666;stroke-width:0.264583" />
  </g>
</svg>
