<?xml version="1.0" encoding="UTF-8" standalone="no"?>
<!-- Created with Inkscape (http://www.inkscape.org/) -->

<svg
   width="4.3656292mm"
   height="5.3574977mm"
   viewBox="0 0 4.3656292 5.3574977"
   version="1.1"
   id="svg1"
   inkscape:version="1.4 (e7c3feb100, 2024-10-09)"
   sodipodi:docname="local.svg"
   xmlns:inkscape="http://www.inkscape.org/namespaces/inkscape"
   xmlns:sodipodi="http://sodipodi.sourceforge.net/DTD/sodipodi-0.dtd"
   xmlns="http://www.w3.org/2000/svg"
   xmlns:svg="http://www.w3.org/2000/svg">
  <sodipodi:namedview
     id="namedview1"
     pagecolor="#ffffff"
     bordercolor="#000000"
     borderopacity="0.25"
     inkscape:showpageshadow="2"
     inkscape:pageopacity="0.0"
     inkscape:pagecheckerboard="0"
     inkscape:deskcolor="#d1d1d1"
     inkscape:document-units="mm"
     inkscape:zoom="1.0482005"
     inkscape:cx="3.3390559"
     inkscape:cy="-23.850399"
     inkscape:window-width="1920"
     inkscape:window-height="1043"
     inkscape:window-x="0"
     inkscape:window-y="0"
     inkscape:window-maximized="1"
     inkscape:current-layer="layer1" />
  <defs
     id="defs1" />
  <g
     inkscape:label="Layer 1"
     inkscape:groupmode="layer"
     id="layer1"
     transform="translate(-98.093451,-138.70751)">
    <path
       fill-rule="evenodd"
       d="m 100.15538,144.0262 0.0185,0.0106 0.007,0.004 a 0.20108333,0.20108333 0 0 0 0.19129,0 l 0.007,-0.004 0.0188,-0.0109 a 4.4913021,4.4913021 0 0 0 0.30269,-0.19632 5.1805417,5.1805417 0 0 0 0.70987,-0.60378 c 0.51435,-0.52652 1.04855,-1.31762 1.04855,-2.33548 a 2.1828145,2.1828145 0 0 0 -4.365629,0 c 0,1.01759 0.534458,1.80896 1.048544,2.33548 a 5.1805417,5.1805417 0 0 0 0.709612,0.60378 4.4913021,4.4913021 0 0 0 0.302953,0.19632 z m 0.1217,-2.34183 a 0.79375,0.79375 0 1 0 0,-1.5875 0.79375,0.79375 0 0 0 0,1.5875 z"
       clip-rule="evenodd"
       id="path1"
       style="stroke-width:0.264583;fill:#666666" />
  </g>
</svg>
