<?xml version="1.0" encoding="UTF-8" standalone="no"?>
<!-- Created with Inkscape (http://www.inkscape.org/) -->

<svg
   width="5.1599064mm"
   height="5.1456699mm"
   viewBox="0 0 5.1599064 5.1456699"
   version="1.1"
   id="svg1"
   inkscape:version="1.4 (e7c3feb100, 2024-10-09)"
   sodipodi:docname="site.svg"
   xmlns:inkscape="http://www.inkscape.org/namespaces/inkscape"
   xmlns:sodipodi="http://sodipodi.sourceforge.net/DTD/sodipodi-0.dtd"
   xmlns="http://www.w3.org/2000/svg"
   xmlns:svg="http://www.w3.org/2000/svg">
  <sodipodi:namedview
     id="namedview1"
     pagecolor="#ffffff"
     bordercolor="#000000"
     borderopacity="0.25"
     inkscape:showpageshadow="2"
     inkscape:pageopacity="0.0"
     inkscape:pagecheckerboard="0"
     inkscape:deskcolor="#d1d1d1"
     inkscape:document-units="mm"
     inkscape:zoom="2.096401"
     inkscape:cx="101.3642"
     inkscape:cy="21.465359"
     inkscape:window-width="1920"
     inkscape:window-height="1043"
     inkscape:window-x="0"
     inkscape:window-y="0"
     inkscape:window-maximized="1"
     inkscape:current-layer="layer1" />
  <defs
     id="defs1" />
  <g
     inkscape:label="Layer 1"
     inkscape:groupmode="layer"
     id="layer1"
     transform="translate(-83.938786,-153.59745)">
    <path
       d="m 89.090767,156.36928 a 2.5693687,2.5693687 0 0 0 -0.25003,-1.32371 3.3744958,3.3744958 0 0 1 -1.14802,0.71649 5.0247021,5.0247021 0 0 1 -0.0566,1.26259 4.5415729,4.5415729 0 0 0 1.45467,-0.65537 z m -1.8751,0.7403 a 4.5836417,4.5836417 0 0 0 0.0878,-1.22952 c -0.25188,0.0601 -0.51461,0.0918 -0.78475,0.0918 -0.27014,0 -0.53287,-0.0317 -0.78475,-0.0918 a 4.6341771,4.6341771 0 0 0 0.0878,1.22952 4.5997812,4.5997812 0 0 0 1.39382,0 z m -1.2864,0.41513 a 5.0172937,5.0172937 0 0 0 1.17898,0 4.5460708,4.5460708 0 0 1 -0.58949,1.21841 4.5455417,4.5455417 0 0 1 -0.58949,-1.21841 z m -0.52785,-0.4998 a 4.9926875,4.9926875 0 0 1 -0.0566,-1.26312 3.3742312,3.3742312 0 0 1 -1.14829,-0.71649 2.5693687,2.5693687 0 0 0 -0.24976,1.32398 4.5415729,4.5415729 0 0 0 1.45467,0.65537 z m 3.59278,-0.12647 a 2.5836562,2.5836562 0 0 1 -1.97855,1.80367 4.9318333,4.9318333 0 0 0 0.52599,-1.24831 4.9283937,4.9283937 0 0 0 1.45256,-0.55509 z m -4.95088,0 c 0.44503,0.25691 0.93398,0.44662 1.45256,0.55536 a 4.9318333,4.9318333 0 0 0 0.52599,1.24831 2.5836562,2.5836562 0 0 1 -1.97855,-1.8034 z m 2.97233,-3.26019 a 2.5810104,2.5810104 0 0 1 1.61819,1.05463 2.9810604,2.9810604 0 0 1 -0.99113,0.66251 4.9291875,4.9291875 0 0 0 -0.62706,-1.71714 z m -0.49689,-0.0408 a 4.5381333,4.5381333 0 0 1 0.74216,1.8841 c -0.23734,0.0608 -0.48604,0.0934 -0.74216,0.0934 -0.25612,0 -0.50482,-0.0323 -0.74216,-0.0934 a 4.5378687,4.5378687 0 0 1 0.74216,-1.8841 z m -0.49689,0.0408 a 4.9289229,4.9289229 0 0 0 -0.62706,1.71714 2.9807958,2.9807958 0 0 1 -0.99113,-0.66251 2.5807458,2.5807458 0 0 1 1.61819,-1.05437 z"
       id="path1"
       style="fill:#666666;stroke-width:0.264583" />
  </g>
</svg>
